<?xml version="1.0" encoding="UTF-8" standalone="no"?>
<!DOCTYPE svg PUBLIC "-//W3C//DTD SVG 1.1//EN"
 "http://www.w3.org/Graphics/SVG/1.1/DTD/svg11.dtd">
<!-- Generated by graphviz version 2.40.1 (20161225.0304)
 -->
<!-- Title: dependencies Pages: 1 -->
<svg width="2618pt" height="360pt"
 viewBox="0.00 0.00 2618.00 360.00" xmlns="http://www.w3.org/2000/svg" xmlns:xlink="http://www.w3.org/1999/xlink">
<g id="graph0" class="graph" transform="scale(1 1) rotate(0) translate(4 356)">
<title>dependencies</title>
<polygon fill="#ffffff" stroke="transparent" points="-4,4 -4,-356 2614,-356 2614,4 -4,4"/>
<text text-anchor="start" x="1284.0091" y="-42.4" font-family="sans-serif" font-weight="bold" font-size="14.00" fill="#000000">Legend</text>
<polygon fill="#ffffb3" stroke="transparent" points="1071,-10 1071,-30 1091,-30 1091,-10 1071,-10"/>
<text text-anchor="start" x="1094.629" y="-15.4" font-family="sans-serif" font-size="14.00" fill="#000000"> &#160;Declarations</text>
<polygon fill="#8dd3c7" stroke="transparent" points="1184,-10 1184,-30 1204,-30 1204,-10 1184,-10"/>
<text text-anchor="start" x="1207.7251" y="-15.4" font-family="sans-serif" font-size="14.00" fill="#000000"> &#160;Module</text>
<polygon fill="#80b1d3" stroke="transparent" points="1270,-10 1270,-30 1290,-30 1290,-10 1270,-10"/>
<text text-anchor="start" x="1293.7812" y="-15.4" font-family="sans-serif" font-size="14.00" fill="#000000"> &#160;Bootstrap</text>
<polygon fill="#fdb462" stroke="transparent" points="1367,-10 1367,-30 1387,-30 1387,-10 1367,-10"/>
<text text-anchor="start" x="1390.6732" y="-15.4" font-family="sans-serif" font-size="14.00" fill="#000000"> &#160;Providers</text>
<polygon fill="#fb8072" stroke="transparent" points="1463,-10 1463,-30 1483,-30 1483,-10 1463,-10"/>
<text text-anchor="start" x="1486.7258" y="-15.4" font-family="sans-serif" font-size="14.00" fill="#000000"> &#160;Exports</text>
<g id="clust1" class="cluster">
<title>cluster_AppModule</title>
<polygon fill="none" stroke="#000000" stroke-dasharray="1,5" points="1018,-146 1018,-344 2306,-344 2306,-146 1018,-146"/>
</g>
<g id="clust2" class="cluster">
<title>cluster_AppModule_declarations</title>
<polygon fill="none" stroke="#000000" points="1688,-154 1688,-206 2298,-206 2298,-154 1688,-154"/>
</g>
<g id="clust7" class="cluster">
<title>cluster_AppModule_imports</title>
<polygon fill="none" stroke="#000000" points="1222,-154 1222,-206 1680,-206 1680,-154 1222,-154"/>
</g>
<g id="clust9" class="cluster">
<title>cluster_AppModule_bootstrap</title>
<polygon fill="none" stroke="#000000" points="1630,-284 1630,-336 1754,-336 1754,-284 1630,-284"/>
</g>
<g id="clust10" class="cluster">
<title>cluster_AppModule_providers</title>
<polygon fill="none" stroke="#000000" points="1026,-154 1026,-206 1214,-206 1214,-154 1026,-154"/>
</g>
<g id="clust17" class="cluster">
<title>cluster_DashboardModule</title>
<polygon fill="none" stroke="#000000" stroke-dasharray="1,5" points="8,-70 8,-138 1519,-138 1519,-70 8,-70"/>
</g>
<g id="clust18" class="cluster">
<title>cluster_DashboardModule_declarations</title>
<polygon fill="none" stroke="#000000" points="16,-78 16,-130 1511,-130 1511,-78 16,-78"/>
</g>
<g id="clust32" class="cluster">
<title>cluster_ProcessOverviewModule</title>
<polygon fill="none" stroke="#000000" stroke-dasharray="1,5" points="1527,-70 1527,-138 2602,-138 2602,-70 1527,-70"/>
</g>
<g id="clust33" class="cluster">
<title>cluster_ProcessOverviewModule_declarations</title>
<polygon fill="none" stroke="#000000" points="1535,-78 1535,-130 2594,-130 2594,-78 1535,-78"/>
</g>
<!-- AppComponent -->
<g id="node1" class="node">
<title>AppComponent</title>
<polygon fill="#ffffb3" stroke="#000000" points="2289.9399,-198 2184.0601,-198 2184.0601,-162 2289.9399,-162 2289.9399,-198"/>
<text text-anchor="middle" x="2237" y="-175.8" font-family="Times,serif" font-size="14.00" fill="#000000">AppComponent</text>
</g>
<!-- AppModule -->
<g id="node5" class="node">
<title>AppModule</title>
<polygon fill="#8dd3c7" stroke="#000000" points="1733.6571,-263 1730.6571,-267 1709.6571,-267 1706.6571,-263 1650.3429,-263 1650.3429,-227 1733.6571,-227 1733.6571,-263"/>
<text text-anchor="middle" x="1692" y="-240.8" font-family="Times,serif" font-size="14.00" fill="#000000">AppModule</text>
</g>
<!-- AppComponent&#45;&gt;AppModule -->
<g id="edge1" class="edge">
<title>AppComponent&#45;&gt;AppModule</title>
<path fill="none" stroke="#000000" d="M2237,-198.2921C2237,-220.2057 2237,-254 2237,-254 2237,-254 1743.8603,-254 1743.8603,-254"/>
<polygon fill="#000000" stroke="#000000" points="1743.8603,-250.5001 1733.8603,-254 1743.8603,-257.5001 1743.8603,-250.5001"/>
</g>
<!-- LoginComponent -->
<g id="node2" class="node">
<title>LoginComponent</title>
<polygon fill="#ffffb3" stroke="#000000" points="2166.2758,-198 2051.7242,-198 2051.7242,-162 2166.2758,-162 2166.2758,-198"/>
<text text-anchor="middle" x="2109" y="-175.8" font-family="Times,serif" font-size="14.00" fill="#000000">LoginComponent</text>
</g>
<!-- LoginComponent&#45;&gt;AppModule -->
<g id="edge2" class="edge">
<title>LoginComponent&#45;&gt;AppModule</title>
<path fill="none" stroke="#000000" d="M2109,-198.1061C2109,-217.3391 2109,-245 2109,-245 2109,-245 1743.8928,-245 1743.8928,-245"/>
<polygon fill="#000000" stroke="#000000" points="1743.8929,-241.5001 1733.8928,-245 1743.8928,-248.5001 1743.8929,-241.5001"/>
</g>
<!-- ProcesOpstartComponent -->
<g id="node3" class="node">
<title>ProcesOpstartComponent</title>
<polygon fill="#ffffb3" stroke="#000000" points="2033.8571,-198 1874.1429,-198 1874.1429,-162 2033.8571,-162 2033.8571,-198"/>
<text text-anchor="middle" x="1954" y="-175.8" font-family="Times,serif" font-size="14.00" fill="#000000">ProcesOpstartComponent</text>
</g>
<!-- ProcesOpstartComponent&#45;&gt;AppModule -->
<g id="edge3" class="edge">
<title>ProcesOpstartComponent&#45;&gt;AppModule</title>
<path fill="none" stroke="#000000" d="M1954,-198.027C1954,-214.3976 1954,-236 1954,-236 1954,-236 1743.8044,-236 1743.8044,-236"/>
<polygon fill="#000000" stroke="#000000" points="1743.8044,-232.5001 1733.8044,-236 1743.8044,-239.5001 1743.8044,-232.5001"/>
</g>
<!-- UsersBeherenComponent -->
<g id="node4" class="node">
<title>UsersBeherenComponent</title>
<polygon fill="#ffffb3" stroke="#000000" points="1855.8445,-198 1696.1555,-198 1696.1555,-162 1855.8445,-162 1855.8445,-198"/>
<text text-anchor="middle" x="1776" y="-175.8" font-family="Times,serif" font-size="14.00" fill="#000000">UsersBeherenComponent</text>
</g>
<!-- UsersBeherenComponent&#45;&gt;AppModule -->
<g id="edge4" class="edge">
<title>UsersBeherenComponent&#45;&gt;AppModule</title>
<path fill="none" stroke="#000000" d="M1714.953,-198.1061C1714.953,-198.1061 1714.953,-216.991 1714.953,-216.991"/>
<polygon fill="#000000" stroke="#000000" points="1711.4531,-216.9909 1714.953,-226.991 1718.4531,-216.991 1711.4531,-216.9909"/>
</g>
<!-- AppComponent  -->
<g id="node9" class="node">
<title>AppComponent </title>
<polygon fill="#80b1d3" stroke="#000000" points="1746.439,-328 1637.561,-328 1637.561,-292 1746.439,-292 1746.439,-328"/>
<text text-anchor="middle" x="1692" y="-305.8" font-family="Times,serif" font-size="14.00" fill="#000000">AppComponent </text>
</g>
<!-- AppModule&#45;&gt;AppComponent  -->
<g id="edge8" class="edge">
<title>AppModule&#45;&gt;AppComponent </title>
<path fill="none" stroke="#000000" stroke-dasharray="1,5" d="M1692,-263.1061C1692,-263.1061 1692,-281.991 1692,-281.991"/>
<polygon fill="#000000" stroke="#000000" points="1688.5001,-281.9909 1692,-291.991 1695.5001,-281.991 1688.5001,-281.9909"/>
</g>
<!-- AppRoutingModule -->
<g id="node6" class="node">
<title>AppRoutingModule</title>
<polygon fill="#8dd3c7" stroke="#000000" points="1672.2744,-198 1669.2744,-202 1648.2744,-202 1645.2744,-198 1543.7256,-198 1543.7256,-162 1672.2744,-162 1672.2744,-198"/>
<text text-anchor="middle" x="1608" y="-175.8" font-family="Times,serif" font-size="14.00" fill="#000000">AppRoutingModule</text>
</g>
<!-- AppRoutingModule&#45;&gt;AppModule -->
<g id="edge5" class="edge">
<title>AppRoutingModule&#45;&gt;AppModule</title>
<path fill="none" stroke="#000000" d="M1661.2795,-198.1061C1661.2795,-198.1061 1661.2795,-216.991 1661.2795,-216.991"/>
<polygon fill="#000000" stroke="#000000" points="1657.7795,-216.9909 1661.2795,-226.991 1664.7795,-216.991 1657.7795,-216.9909"/>
</g>
<!-- DashboardModule -->
<g id="node7" class="node">
<title>DashboardModule</title>
<polygon fill="#8dd3c7" stroke="#000000" points="1350.191,-198 1347.191,-202 1326.191,-202 1323.191,-198 1229.809,-198 1229.809,-162 1350.191,-162 1350.191,-198"/>
<text text-anchor="middle" x="1290" y="-175.8" font-family="Times,serif" font-size="14.00" fill="#000000">DashboardModule</text>
</g>
<!-- DashboardModule&#45;&gt;AppModule -->
<g id="edge6" class="edge">
<title>DashboardModule&#45;&gt;AppModule</title>
<path fill="none" stroke="#000000" d="M1290,-198.1061C1290,-217.3391 1290,-245 1290,-245 1290,-245 1640.1166,-245 1640.1166,-245"/>
<polygon fill="#000000" stroke="#000000" points="1640.1166,-248.5001 1650.1166,-245 1640.1166,-241.5001 1640.1166,-248.5001"/>
</g>
<!-- ProcessOverviewModule -->
<g id="node8" class="node">
<title>ProcessOverviewModule</title>
<polygon fill="#8dd3c7" stroke="#000000" points="1525.5058,-198 1522.5058,-202 1501.5058,-202 1498.5058,-198 1368.4942,-198 1368.4942,-162 1525.5058,-162 1525.5058,-198"/>
<text text-anchor="middle" x="1447" y="-175.8" font-family="Times,serif" font-size="14.00" fill="#000000">ProcessOverviewModule</text>
</g>
<!-- ProcessOverviewModule&#45;&gt;AppModule -->
<g id="edge7" class="edge">
<title>ProcessOverviewModule&#45;&gt;AppModule</title>
<path fill="none" stroke="#000000" d="M1447,-198.027C1447,-214.3976 1447,-236 1447,-236 1447,-236 1640.1614,-236 1640.1614,-236"/>
<polygon fill="#000000" stroke="#000000" points="1640.1614,-239.5001 1650.1614,-236 1640.1613,-232.5001 1640.1614,-239.5001"/>
</g>
<!-- SecurityInterceptor -->
<g id="node10" class="node">
<title>SecurityInterceptor</title>
<ellipse fill="#fdb462" stroke="#000000" cx="1120" cy="-180" rx="85.6493" ry="18"/>
<text text-anchor="middle" x="1120" y="-175.8" font-family="Times,serif" font-size="14.00" fill="#000000">SecurityInterceptor</text>
</g>
<!-- SecurityInterceptor&#45;&gt;AppModule -->
<g id="edge9" class="edge">
<title>SecurityInterceptor&#45;&gt;AppModule</title>
<path fill="none" stroke="#000000" d="M1120,-198.2921C1120,-220.2057 1120,-254 1120,-254 1120,-254 1639.9395,-254 1639.9395,-254"/>
<polygon fill="#000000" stroke="#000000" points="1639.9395,-257.5001 1649.9395,-254 1639.9394,-250.5001 1639.9395,-257.5001"/>
</g>
<!-- ActionsComponent -->
<g id="node11" class="node">
<title>ActionsComponent</title>
<polygon fill="#ffffb3" stroke="#000000" points="1503.3795,-122 1378.6205,-122 1378.6205,-86 1503.3795,-86 1503.3795,-122"/>
<text text-anchor="middle" x="1441" y="-99.8" font-family="Times,serif" font-size="14.00" fill="#000000">ActionsComponent</text>
</g>
<!-- ActionsComponent&#45;&gt;DashboardModule -->
<g id="edge10" class="edge">
<title>ActionsComponent&#45;&gt;DashboardModule</title>
<path fill="none" stroke="#000000" d="M1378.2728,-104C1370.1661,-104 1364.6171,-104 1364.6171,-104 1364.6171,-104 1364.6171,-180 1364.6171,-180 1364.6171,-180 1360.2302,-180 1360.2302,-180"/>
<polygon fill="#000000" stroke="#000000" points="1360.2302,-176.5001 1350.2302,-180 1360.2301,-183.5001 1360.2302,-176.5001"/>
</g>
<!-- DashboardComponent -->
<g id="node12" class="node">
<title>DashboardComponent</title>
<polygon fill="#ffffb3" stroke="#000000" points="1360.9734,-122 1219.0266,-122 1219.0266,-86 1360.9734,-86 1360.9734,-122"/>
<text text-anchor="middle" x="1290" y="-99.8" font-family="Times,serif" font-size="14.00" fill="#000000">DashboardComponent</text>
</g>
<!-- DashboardComponent&#45;&gt;DashboardModule -->
<g id="edge11" class="edge">
<title>DashboardComponent&#45;&gt;DashboardModule</title>
<path fill="none" stroke="#000000" d="M1335.0715,-122.0109C1335.0715,-122.0109 1335.0715,-151.855 1335.0715,-151.855"/>
<polygon fill="#000000" stroke="#000000" points="1331.5716,-151.8549 1335.0715,-161.855 1338.5716,-151.855 1331.5716,-151.8549"/>
</g>
<!-- InfoComponent -->
<g id="node13" class="node">
<title>InfoComponent</title>
<polygon fill="#ffffb3" stroke="#000000" points="1201.1542,-122 1096.8458,-122 1096.8458,-86 1201.1542,-86 1201.1542,-122"/>
<text text-anchor="middle" x="1149" y="-99.8" font-family="Times,serif" font-size="14.00" fill="#000000">InfoComponent</text>
</g>
<!-- InfoComponent&#45;&gt;DashboardModule -->
<g id="edge12" class="edge">
<title>InfoComponent&#45;&gt;DashboardModule</title>
<path fill="none" stroke="#000000" d="M1201.269,-104C1207.8281,-104 1212.294,-104 1212.294,-104 1212.294,-104 1212.294,-180 1212.294,-180 1212.294,-180 1219.5394,-180 1219.5394,-180"/>
<polygon fill="#000000" stroke="#000000" points="1219.5395,-183.5001 1229.5394,-180 1219.5394,-176.5001 1219.5395,-183.5001"/>
</g>
<!-- MeasurementsComponent -->
<g id="node14" class="node">
<title>MeasurementsComponent</title>
<polygon fill="#ffffb3" stroke="#000000" points="1078.4664,-122 915.5336,-122 915.5336,-86 1078.4664,-86 1078.4664,-122"/>
<text text-anchor="middle" x="997" y="-99.8" font-family="Times,serif" font-size="14.00" fill="#000000">MeasurementsComponent</text>
</g>
<!-- MeasurementsComponent&#45;&gt;DashboardModule -->
<g id="edge13" class="edge">
<title>MeasurementsComponent&#45;&gt;DashboardModule</title>
<path fill="none" stroke="#000000" d="M1056.4543,-122.1097C1056.4543,-131.897 1056.4543,-142 1056.4543,-142 1056.4543,-142 1320.0477,-142 1320.0477,-142 1320.0477,-142 1320.0477,-151.8903 1320.0477,-151.8903"/>
<polygon fill="#000000" stroke="#000000" points="1316.5478,-151.8903 1320.0477,-161.8903 1323.5478,-151.8904 1316.5478,-151.8903"/>
</g>
<!-- ModalAddActivityComponent -->
<g id="node15" class="node">
<title>ModalAddActivityComponent</title>
<polygon fill="#ffffb3" stroke="#000000" points="897.8724,-122 710.1276,-122 710.1276,-86 897.8724,-86 897.8724,-122"/>
<text text-anchor="middle" x="804" y="-99.8" font-family="Times,serif" font-size="14.00" fill="#000000">ModalAddActivityComponent</text>
</g>
<!-- ModalAddActivityComponent&#45;&gt;DashboardModule -->
<g id="edge14" class="edge">
<title>ModalAddActivityComponent&#45;&gt;DashboardModule</title>
<path fill="none" stroke="#000000" d="M804,-122.0555C804,-133.439 804,-146 804,-146 804,-146 1305.0239,-146 1305.0239,-146 1305.0239,-146 1305.0239,-151.8056 1305.0239,-151.8056"/>
<polygon fill="#000000" stroke="#000000" points="1301.5239,-151.8055 1305.0239,-161.8056 1308.5239,-151.8056 1301.5239,-151.8055"/>
</g>
<!-- ModalAddMeasurementComponent -->
<g id="node16" class="node">
<title>ModalAddMeasurementComponent</title>
<polygon fill="#ffffb3" stroke="#000000" points="692.1783,-122 473.8217,-122 473.8217,-86 692.1783,-86 692.1783,-122"/>
<text text-anchor="middle" x="583" y="-99.8" font-family="Times,serif" font-size="14.00" fill="#000000">ModalAddMeasurementComponent</text>
</g>
<!-- ModalAddMeasurementComponent&#45;&gt;DashboardModule -->
<g id="edge15" class="edge">
<title>ModalAddMeasurementComponent&#45;&gt;DashboardModule</title>
<path fill="none" stroke="#000000" d="M583,-122.0439C583,-134.5633 583,-149 583,-149 583,-149 1290,-149 1290,-149 1290,-149 1290,-151.9672 1290,-151.9672"/>
<polygon fill="#000000" stroke="#000000" points="1286.5001,-151.9671 1290,-161.9672 1293.5001,-151.9672 1286.5001,-151.9671"/>
</g>
<!-- ModalStopProcessComponent -->
<g id="node17" class="node">
<title>ModalStopProcessComponent</title>
<polygon fill="#ffffb3" stroke="#000000" points="456.3173,-122 269.6827,-122 269.6827,-86 456.3173,-86 456.3173,-122"/>
<text text-anchor="middle" x="363" y="-99.8" font-family="Times,serif" font-size="14.00" fill="#000000">ModalStopProcessComponent</text>
</g>
<!-- ModalStopProcessComponent&#45;&gt;DashboardModule -->
<g id="edge16" class="edge">
<title>ModalStopProcessComponent&#45;&gt;DashboardModule</title>
<path fill="none" stroke="#000000" d="M363,-122.1467C363,-135.7395 363,-152 363,-152 363,-152 1274.9762,-152 1274.9762,-152 1274.9762,-152 1274.9762,-152.9793 1274.9762,-152.9793"/>
<polygon fill="#000000" stroke="#000000" points="1271.4763,-151.793 1274.9762,-161.793 1278.4763,-151.7931 1271.4763,-151.793"/>
</g>
<!-- NavigationComponent -->
<g id="node18" class="node">
<title>NavigationComponent</title>
<polygon fill="#ffffb3" stroke="#000000" points="251.5407,-122 108.4593,-122 108.4593,-86 251.5407,-86 251.5407,-122"/>
<text text-anchor="middle" x="180" y="-99.8" font-family="Times,serif" font-size="14.00" fill="#000000">NavigationComponent</text>
</g>
<!-- NavigationComponent&#45;&gt;DashboardModule -->
<g id="edge17" class="edge">
<title>NavigationComponent&#45;&gt;DashboardModule</title>
<path fill="none" stroke="#000000" d="M180,-122.1871C180,-137.1824 180,-156 180,-156 180,-156 1259.9523,-156 1259.9523,-156 1259.9523,-156 1259.9523,-156.581 1259.9523,-156.581"/>
<polygon fill="#000000" stroke="#000000" points="1256.4525,-151.8097 1259.9523,-161.8097 1263.4525,-151.8098 1256.4525,-151.8097"/>
</g>
<!-- SafePipe -->
<g id="node19" class="node">
<title>SafePipe</title>
<polygon fill="#ffffb3" stroke="#000000" points="89.7606,-122 24.2394,-122 24.2394,-86 89.7606,-86 89.7606,-122"/>
<text text-anchor="middle" x="57" y="-99.8" font-family="Times,serif" font-size="14.00" fill="#000000">SafePipe</text>
</g>
<!-- SafePipe&#45;&gt;DashboardModule -->
<g id="edge18" class="edge">
<title>SafePipe&#45;&gt;DashboardModule</title>
<path fill="none" stroke="#000000" d="M57,-122.0091C57,-138.0494 57,-159 57,-159 57,-159 1244.9285,-159 1244.9285,-159 1244.9285,-159 1244.9285,-159.292 1244.9285,-159.292"/>
<polygon fill="#000000" stroke="#000000" points="1241.4288,-151.9198 1244.9285,-161.92 1248.4288,-151.9201 1241.4288,-151.9198"/>
</g>
<!-- CardStyle1Component -->
<g id="node20" class="node">
<title>CardStyle1Component</title>
<polygon fill="#ffffb3" stroke="#000000" points="2586.323,-122 2441.677,-122 2441.677,-86 2586.323,-86 2586.323,-122"/>
<text text-anchor="middle" x="2514" y="-99.8" font-family="Times,serif" font-size="14.00" fill="#000000">CardStyle1Component</text>
</g>
<!-- CardStyle1Component&#45;&gt;ProcessOverviewModule -->
<g id="edge19" class="edge">
<title>CardStyle1Component&#45;&gt;ProcessOverviewModule</title>
<path fill="none" stroke="#000000" d="M2514,-122.32C2514,-130.7883 2514,-139 2514,-139 2514,-139 1522.565,-139 1522.565,-139 1522.565,-139 1522.565,-151.8975 1522.565,-151.8975"/>
<polygon fill="#000000" stroke="#000000" points="1519.0651,-151.8974 1522.565,-161.8975 1526.0651,-151.8975 1519.0651,-151.8974"/>
</g>
<!-- CardTemplateBaseComponent -->
<g id="node21" class="node">
<title>CardTemplateBaseComponent</title>
<polygon fill="#ffffb3" stroke="#000000" points="2424.1232,-122 2235.8768,-122 2235.8768,-86 2424.1232,-86 2424.1232,-122"/>
<text text-anchor="middle" x="2330" y="-99.8" font-family="Times,serif" font-size="14.00" fill="#000000">CardTemplateBaseComponent</text>
</g>
<!-- CardTemplateBaseComponent&#45;&gt;ProcessOverviewModule -->
<g id="edge20" class="edge">
<title>CardTemplateBaseComponent&#45;&gt;ProcessOverviewModule</title>
<path fill="none" stroke="#000000" d="M2262.7041,-122.2434C2262.7041,-129.4297 2262.7041,-136 2262.7041,-136 2262.7041,-136 1519.3774,-136 1519.3774,-136 1519.3774,-136 1519.3774,-151.8495 1519.3774,-151.8495"/>
<polygon fill="#000000" stroke="#000000" points="1515.8775,-151.8494 1519.3774,-161.8495 1522.8775,-151.8495 1515.8775,-151.8494"/>
</g>
<!-- CardsDirective -->
<g id="node22" class="node">
<title>CardsDirective</title>
<polygon fill="#ffffb3" stroke="#000000" points="2217.2395,-122 2116.7605,-122 2116.7605,-86 2217.2395,-86 2217.2395,-122"/>
<text text-anchor="middle" x="2167" y="-99.8" font-family="Times,serif" font-size="14.00" fill="#000000">CardsDirective</text>
</g>
<!-- CardsDirective&#45;&gt;ProcessOverviewModule -->
<g id="edge21" class="edge">
<title>CardsDirective&#45;&gt;ProcessOverviewModule</title>
<path fill="none" stroke="#000000" d="M2141.5091,-122.207C2141.5091,-127.5549 2141.5091,-132 2141.5091,-132 2141.5091,-132 1516.1899,-132 1516.1899,-132 1516.1899,-132 1516.1899,-151.8533 1516.1899,-151.8533"/>
<polygon fill="#000000" stroke="#000000" points="1512.69,-151.8532 1516.1899,-161.8533 1519.69,-151.8533 1512.69,-151.8532"/>
</g>
<!-- ProcessCardsComponent -->
<g id="node23" class="node">
<title>ProcessCardsComponent</title>
<polygon fill="#ffffb3" stroke="#000000" points="2098.2506,-122 1941.7494,-122 1941.7494,-86 2098.2506,-86 2098.2506,-122"/>
<text text-anchor="middle" x="2020" y="-99.8" font-family="Times,serif" font-size="14.00" fill="#000000">ProcessCardsComponent</text>
</g>
<!-- ProcessCardsComponent&#45;&gt;ProcessOverviewModule -->
<g id="edge22" class="edge">
<title>ProcessCardsComponent&#45;&gt;ProcessOverviewModule</title>
<path fill="none" stroke="#000000" d="M1987.7767,-122.1686C1987.7767,-126.0459 1987.7767,-129 1987.7767,-129 1987.7767,-129 1513.0023,-129 1513.0023,-129 1513.0023,-129 1513.0023,-151.8757 1513.0023,-151.8757"/>
<polygon fill="#000000" stroke="#000000" points="1509.5024,-151.8757 1513.0023,-161.8757 1516.5024,-151.8757 1509.5024,-151.8757"/>
</g>
<!-- ProcessCardsItemComponent -->
<g id="node24" class="node">
<title>ProcessCardsItemComponent</title>
<polygon fill="#ffffb3" stroke="#000000" points="1923.4073,-122 1740.5927,-122 1740.5927,-86 1923.4073,-86 1923.4073,-122"/>
<text text-anchor="middle" x="1832" y="-99.8" font-family="Times,serif" font-size="14.00" fill="#000000">ProcessCardsItemComponent</text>
</g>
<!-- ProcessCardsItemComponent&#45;&gt;ProcessOverviewModule -->
<g id="edge23" class="edge">
<title>ProcessCardsItemComponent&#45;&gt;ProcessOverviewModule</title>
<path fill="none" stroke="#000000" d="M1798.3594,-122.1679C1798.3594,-124.4478 1798.3594,-126 1798.3594,-126 1798.3594,-126 1509.8148,-126 1509.8148,-126 1509.8148,-126 1509.8148,-151.7181 1509.8148,-151.7181"/>
<polygon fill="#000000" stroke="#000000" points="1506.3149,-151.718 1509.8148,-161.7181 1513.3149,-151.7181 1506.3149,-151.718"/>
</g>
<!-- ProcessOverviewComponent -->
<g id="node25" class="node">
<title>ProcessOverviewComponent</title>
<polygon fill="#ffffb3" stroke="#000000" points="1722.7878,-122 1543.2122,-122 1543.2122,-86 1722.7878,-86 1722.7878,-122"/>
<text text-anchor="middle" x="1633" y="-99.8" font-family="Times,serif" font-size="14.00" fill="#000000">ProcessOverviewComponent</text>
</g>
<!-- ProcessOverviewComponent&#45;&gt;ProcessOverviewModule -->
<g id="edge24" class="edge">
<title>ProcessOverviewComponent&#45;&gt;ProcessOverviewModule</title>
<path fill="none" stroke="#000000" d="M1543.1795,-104C1522.5955,-104 1506.6272,-104 1506.6272,-104 1506.6272,-104 1506.6272,-151.9891 1506.6272,-151.9891"/>
<polygon fill="#000000" stroke="#000000" points="1503.1273,-151.989 1506.6272,-161.9891 1510.1273,-151.9891 1503.1273,-151.989"/>
</g>
</g>
</svg>
