<?xml version="1.0" encoding="UTF-8" standalone="no"?>
<!DOCTYPE svg PUBLIC "-//W3C//DTD SVG 1.1//EN"
 "http://www.w3.org/Graphics/SVG/1.1/DTD/svg11.dtd">
<!-- Generated by graphviz version 2.40.1 (20161225.0304)
 -->
<!-- Title: dependencies Pages: 1 -->
<svg width="1099pt" height="211pt"
 viewBox="0.00 0.00 1099.00 211.00" xmlns="http://www.w3.org/2000/svg" xmlns:xlink="http://www.w3.org/1999/xlink">
<g id="graph0" class="graph" transform="scale(1 1) rotate(0) translate(4 207)">
<title>dependencies</title>
<polygon fill="#ffffff" stroke="transparent" points="-4,4 -4,-207 1095,-207 1095,4 -4,4"/>
<text text-anchor="start" x="524.5091" y="-42.4" font-family="sans-serif" font-weight="bold" font-size="14.00" fill="#000000">Legend</text>
<polygon fill="#ffffb3" stroke="transparent" points="311.5,-10 311.5,-30 331.5,-30 331.5,-10 311.5,-10"/>
<text text-anchor="start" x="335.129" y="-15.4" font-family="sans-serif" font-size="14.00" fill="#000000"> &#160;Declarations</text>
<polygon fill="#8dd3c7" stroke="transparent" points="424.5,-10 424.5,-30 444.5,-30 444.5,-10 424.5,-10"/>
<text text-anchor="start" x="448.2251" y="-15.4" font-family="sans-serif" font-size="14.00" fill="#000000"> &#160;Module</text>
<polygon fill="#80b1d3" stroke="transparent" points="510.5,-10 510.5,-30 530.5,-30 530.5,-10 510.5,-10"/>
<text text-anchor="start" x="534.2812" y="-15.4" font-family="sans-serif" font-size="14.00" fill="#000000"> &#160;Bootstrap</text>
<polygon fill="#fdb462" stroke="transparent" points="607.5,-10 607.5,-30 627.5,-30 627.5,-10 607.5,-10"/>
<text text-anchor="start" x="631.1732" y="-15.4" font-family="sans-serif" font-size="14.00" fill="#000000"> &#160;Providers</text>
<polygon fill="#fb8072" stroke="transparent" points="703.5,-10 703.5,-30 723.5,-30 723.5,-10 703.5,-10"/>
<text text-anchor="start" x="727.2258" y="-15.4" font-family="sans-serif" font-size="14.00" fill="#000000"> &#160;Exports</text>
<g id="clust1" class="cluster">
<title>cluster_ProcessOverviewModule</title>
<polygon fill="none" stroke="#000000" stroke-dasharray="1,5" points="8,-70 8,-195 1083,-195 1083,-70 8,-70"/>
</g>
<g id="clust2" class="cluster">
<title>cluster_ProcessOverviewModule_declarations</title>
<polygon fill="none" stroke="#000000" points="16,-78 16,-130 1075,-130 1075,-78 16,-78"/>
</g>
<!-- CardStyle1Component -->
<g id="node1" class="node">
<title>CardStyle1Component</title>
<polygon fill="#ffffb3" stroke="#000000" points="1067.323,-122 922.677,-122 922.677,-86 1067.323,-86 1067.323,-122"/>
<text text-anchor="middle" x="995" y="-99.8" font-family="Times,serif" font-size="14.00" fill="#000000">CardStyle1Component</text>
</g>
<!-- ProcessOverviewModule -->
<g id="node7" class="node">
<title>ProcessOverviewModule</title>
<polygon fill="#8dd3c7" stroke="#000000" points="652.5058,-187 649.5058,-191 628.5058,-191 625.5058,-187 495.4942,-187 495.4942,-151 652.5058,-151 652.5058,-187"/>
<text text-anchor="middle" x="574" y="-164.8" font-family="Times,serif" font-size="14.00" fill="#000000">ProcessOverviewModule</text>
</g>
<!-- CardStyle1Component&#45;&gt;ProcessOverviewModule -->
<g id="edge1" class="edge">
<title>CardStyle1Component&#45;&gt;ProcessOverviewModule</title>
<path fill="none" stroke="#000000" d="M995,-122.2843C995,-143.3211 995,-175 995,-175 995,-175 662.693,-175 662.693,-175"/>
<polygon fill="#000000" stroke="#000000" points="662.693,-171.5001 652.693,-175 662.693,-178.5001 662.693,-171.5001"/>
</g>
<!-- CardTemplateBaseComponent -->
<g id="node2" class="node">
<title>CardTemplateBaseComponent</title>
<polygon fill="#ffffb3" stroke="#000000" points="905.1232,-122 716.8768,-122 716.8768,-86 905.1232,-86 905.1232,-122"/>
<text text-anchor="middle" x="811" y="-99.8" font-family="Times,serif" font-size="14.00" fill="#000000">CardTemplateBaseComponent</text>
</g>
<!-- CardTemplateBaseComponent&#45;&gt;ProcessOverviewModule -->
<g id="edge2" class="edge">
<title>CardTemplateBaseComponent&#45;&gt;ProcessOverviewModule</title>
<path fill="none" stroke="#000000" d="M811,-122.0225C811,-139.3734 811,-163 811,-163 811,-163 662.5884,-163 662.5884,-163"/>
<polygon fill="#000000" stroke="#000000" points="662.5884,-159.5001 652.5884,-163 662.5883,-166.5001 662.5884,-159.5001"/>
</g>
<!-- CardsDirective -->
<g id="node3" class="node">
<title>CardsDirective</title>
<polygon fill="#ffffb3" stroke="#000000" points="698.2395,-122 597.7605,-122 597.7605,-86 698.2395,-86 698.2395,-122"/>
<text text-anchor="middle" x="648" y="-99.8" font-family="Times,serif" font-size="14.00" fill="#000000">CardsDirective</text>
</g>
<!-- CardsDirective&#45;&gt;ProcessOverviewModule -->
<g id="edge3" class="edge">
<title>CardsDirective&#45;&gt;ProcessOverviewModule</title>
<path fill="none" stroke="#000000" d="M625.1915,-122.1061C625.1915,-122.1061 625.1915,-140.991 625.1915,-140.991"/>
<polygon fill="#000000" stroke="#000000" points="621.6915,-140.9909 625.1915,-150.991 628.6915,-140.991 621.6915,-140.9909"/>
</g>
<!-- ProcessCardsComponent -->
<g id="node4" class="node">
<title>ProcessCardsComponent</title>
<polygon fill="#ffffb3" stroke="#000000" points="579.2506,-122 422.7494,-122 422.7494,-86 579.2506,-86 579.2506,-122"/>
<text text-anchor="middle" x="501" y="-99.8" font-family="Times,serif" font-size="14.00" fill="#000000">ProcessCardsComponent</text>
</g>
<!-- ProcessCardsComponent&#45;&gt;ProcessOverviewModule -->
<g id="edge4" class="edge">
<title>ProcessCardsComponent&#45;&gt;ProcessOverviewModule</title>
<path fill="none" stroke="#000000" d="M537.3113,-122.1061C537.3113,-122.1061 537.3113,-140.991 537.3113,-140.991"/>
<polygon fill="#000000" stroke="#000000" points="533.8114,-140.9909 537.3113,-150.991 540.8114,-140.991 533.8114,-140.9909"/>
</g>
<!-- ProcessCardsItemComponent -->
<g id="node5" class="node">
<title>ProcessCardsItemComponent</title>
<polygon fill="#ffffb3" stroke="#000000" points="404.4073,-122 221.5927,-122 221.5927,-86 404.4073,-86 404.4073,-122"/>
<text text-anchor="middle" x="313" y="-99.8" font-family="Times,serif" font-size="14.00" fill="#000000">ProcessCardsItemComponent</text>
</g>
<!-- ProcessCardsItemComponent&#45;&gt;ProcessOverviewModule -->
<g id="edge5" class="edge">
<title>ProcessCardsItemComponent&#45;&gt;ProcessOverviewModule</title>
<path fill="none" stroke="#000000" d="M313,-122.0225C313,-139.3734 313,-163 313,-163 313,-163 485.3375,-163 485.3375,-163"/>
<polygon fill="#000000" stroke="#000000" points="485.3375,-166.5001 495.3375,-163 485.3374,-159.5001 485.3375,-166.5001"/>
</g>
<!-- ProcessOverviewComponent -->
<g id="node6" class="node">
<title>ProcessOverviewComponent</title>
<polygon fill="#ffffb3" stroke="#000000" points="203.7878,-122 24.2122,-122 24.2122,-86 203.7878,-86 203.7878,-122"/>
<text text-anchor="middle" x="114" y="-99.8" font-family="Times,serif" font-size="14.00" fill="#000000">ProcessOverviewComponent</text>
</g>
<!-- ProcessOverviewComponent&#45;&gt;ProcessOverviewModule -->
<g id="edge6" class="edge">
<title>ProcessOverviewComponent&#45;&gt;ProcessOverviewModule</title>
<path fill="none" stroke="#000000" d="M114,-122.2843C114,-143.3211 114,-175 114,-175 114,-175 485.4459,-175 485.4459,-175"/>
<polygon fill="#000000" stroke="#000000" points="485.4459,-178.5001 495.4459,-175 485.4458,-171.5001 485.4459,-178.5001"/>
</g>
</g>
</svg>
